<svg width="40" height="40" viewBox="0 0 40 40" fill="none" xmlns="http://www.w3.org/2000/svg">
<rect x="8.33334" y="8.33334" width="23.3333" height="23.3333" fill="white"/>
<path d="M26.9169 2.43444L26.9169 2.43444C25.116 2.34997 24.5319 2.33334 20 2.33334C15.4655 2.33334 14.8839 2.35504 13.086 2.43431L13.0832 2.43444C11.2165 2.522 9.90246 2.81769 8.72635 3.27422C7.48248 3.74229 6.35535 4.47538 5.42315 5.4226C4.47486 6.35442 3.74143 7.48203 3.27409 8.7267C2.81764 9.90272 2.52199 11.2166 2.43444 13.0832C2.34997 14.884 2.33334 15.4681 2.33334 20C2.33334 24.5345 2.35504 25.1161 2.43431 26.9141L2.43444 26.9169C2.52198 28.7815 2.81756 30.099 3.27437 31.2741C3.74279 32.5176 4.4758 33.6446 5.42267 34.5769C6.35492 35.5249 7.48256 36.2583 8.72711 36.7261C9.90192 37.1803 11.217 37.478 13.0831 37.5656C14.884 37.6501 15.4681 37.6667 20 37.6667C24.5345 37.6667 25.1161 37.645 26.9141 37.5657L26.9169 37.5656C28.7829 37.478 30.1 37.1804 31.2738 36.7258C32.5171 36.2569 33.6439 35.524 34.5767 34.5776C35.5251 33.6456 36.2586 32.5177 36.7261 31.2728C37.1803 30.0981 37.478 28.783 37.5656 26.9169C37.6501 25.116 37.6667 24.5319 37.6667 20C37.6667 15.4655 37.645 14.8839 37.5657 13.086L37.5656 13.0831C37.478 11.2172 37.1804 9.90013 36.7258 8.72641C36.2566 7.48122 35.5224 6.3529 34.5738 5.41964C33.5454 4.39373 32.5001 3.74643 31.2773 3.27563C30.1002 2.81827 28.7837 2.52209 26.9169 2.43444ZM14.8146 14.8146C16.1898 13.4393 18.0551 12.6667 20 12.6667C21.9449 12.6667 23.8102 13.4393 25.1855 14.8146C26.5607 16.1898 27.3333 18.0551 27.3333 20C27.3333 21.9449 26.5607 23.8102 25.1855 25.1855C23.8102 26.5607 21.9449 27.3333 20 27.3333C18.0551 27.3333 16.1898 26.5607 14.8146 25.1855C13.4393 23.8102 12.6667 21.9449 12.6667 20C12.6667 18.0551 13.4393 16.1898 14.8146 14.8146ZM29.516 10.484C29.7192 10.6871 29.8333 10.9627 29.8333 11.25C29.8333 11.5373 29.7192 11.8129 29.516 12.016C29.3129 12.2192 29.0373 12.3333 28.75 12.3333C28.4627 12.3333 28.1871 12.2192 27.984 12.016C27.7808 11.8129 27.6667 11.5373 27.6667 11.25C27.6667 10.9627 27.7808 10.6871 27.984 10.484C28.1871 10.2808 28.4627 10.1667 28.75 10.1667C29.0373 10.1667 29.3129 10.2808 29.516 10.484ZM24.2427 15.7574C23.1174 14.6322 21.5913 14 20 14C18.4087 14 16.8826 14.6322 15.7574 15.7574C14.6322 16.8826 14 18.4087 14 20C14 21.5913 14.6322 23.1174 15.7574 24.2427C16.8826 25.3679 18.4087 26 20 26C21.5913 26 23.1174 25.3679 24.2427 24.2427C25.3679 23.1174 26 21.5913 26 20C26 18.4087 25.3679 16.8826 24.2427 15.7574Z" fill="url(#paint0_radial_1_790)"/>
<path d="M26.9169 2.43444L26.9169 2.43444C25.116 2.34997 24.5319 2.33334 20 2.33334C15.4655 2.33334 14.8839 2.35504 13.086 2.43431L13.0832 2.43444C11.2165 2.522 9.90246 2.81769 8.72635 3.27422C7.48248 3.74229 6.35535 4.47538 5.42315 5.4226C4.47486 6.35442 3.74143 7.48203 3.27409 8.7267C2.81764 9.90272 2.52199 11.2166 2.43444 13.0832C2.34997 14.884 2.33334 15.4681 2.33334 20C2.33334 24.5345 2.35504 25.1161 2.43431 26.9141L2.43444 26.9169C2.52198 28.7815 2.81756 30.099 3.27437 31.2741C3.74279 32.5176 4.4758 33.6446 5.42267 34.5769C6.35492 35.5249 7.48256 36.2583 8.72711 36.7261C9.90192 37.1803 11.217 37.478 13.0831 37.5656C14.884 37.6501 15.4681 37.6667 20 37.6667C24.5345 37.6667 25.1161 37.645 26.9141 37.5657L26.9169 37.5656C28.7829 37.478 30.1 37.1804 31.2738 36.7258C32.5171 36.2569 33.6439 35.524 34.5767 34.5776C35.5251 33.6456 36.2586 32.5177 36.7261 31.2728C37.1803 30.0981 37.478 28.783 37.5656 26.9169C37.6501 25.116 37.6667 24.5319 37.6667 20C37.6667 15.4655 37.645 14.8839 37.5657 13.086L37.5656 13.0831C37.478 11.2172 37.1804 9.90013 36.7258 8.72641C36.2566 7.48122 35.5224 6.3529 34.5738 5.41964C33.5454 4.39373 32.5001 3.74643 31.2773 3.27563C30.1002 2.81827 28.7837 2.52209 26.9169 2.43444ZM14.8146 14.8146C16.1898 13.4393 18.0551 12.6667 20 12.6667C21.9449 12.6667 23.8102 13.4393 25.1855 14.8146C26.5607 16.1898 27.3333 18.0551 27.3333 20C27.3333 21.9449 26.5607 23.8102 25.1855 25.1855C23.8102 26.5607 21.9449 27.3333 20 27.3333C18.0551 27.3333 16.1898 26.5607 14.8146 25.1855C13.4393 23.8102 12.6667 21.9449 12.6667 20C12.6667 18.0551 13.4393 16.1898 14.8146 14.8146ZM29.516 10.484C29.7192 10.6871 29.8333 10.9627 29.8333 11.25C29.8333 11.5373 29.7192 11.8129 29.516 12.016C29.3129 12.2192 29.0373 12.3333 28.75 12.3333C28.4627 12.3333 28.1871 12.2192 27.984 12.016C27.7808 11.8129 27.6667 11.5373 27.6667 11.25C27.6667 10.9627 27.7808 10.6871 27.984 10.484C28.1871 10.2808 28.4627 10.1667 28.75 10.1667C29.0373 10.1667 29.3129 10.2808 29.516 10.484ZM24.2427 15.7574C23.1174 14.6322 21.5913 14 20 14C18.4087 14 16.8826 14.6322 15.7574 15.7574C14.6322 16.8826 14 18.4087 14 20C14 21.5913 14.6322 23.1174 15.7574 24.2427C16.8826 25.3679 18.4087 26 20 26C21.5913 26 23.1174 25.3679 24.2427 24.2427C25.3679 23.1174 26 21.5913 26 20C26 18.4087 25.3679 16.8826 24.2427 15.7574Z" fill="url(#paint1_radial_1_790)"/>
<path d="M26.9169 2.43444L26.9169 2.43444C25.116 2.34997 24.5319 2.33334 20 2.33334C15.4655 2.33334 14.8839 2.35504 13.086 2.43431L13.0832 2.43444C11.2165 2.522 9.90246 2.81769 8.72635 3.27422C7.48248 3.74229 6.35535 4.47538 5.42315 5.4226C4.47486 6.35442 3.74143 7.48203 3.27409 8.7267C2.81764 9.90272 2.52199 11.2166 2.43444 13.0832C2.34997 14.884 2.33334 15.4681 2.33334 20C2.33334 24.5345 2.35504 25.1161 2.43431 26.9141L2.43444 26.9169C2.52198 28.7815 2.81756 30.099 3.27437 31.2741C3.74279 32.5176 4.4758 33.6446 5.42267 34.5769C6.35492 35.5249 7.48256 36.2583 8.72711 36.7261C9.90192 37.1803 11.217 37.478 13.0831 37.5656C14.884 37.6501 15.4681 37.6667 20 37.6667C24.5345 37.6667 25.1161 37.645 26.9141 37.5657L26.9169 37.5656C28.7829 37.478 30.1 37.1804 31.2738 36.7258C32.5171 36.2569 33.6439 35.524 34.5767 34.5776C35.5251 33.6456 36.2586 32.5177 36.7261 31.2728C37.1803 30.0981 37.478 28.783 37.5656 26.9169C37.6501 25.116 37.6667 24.5319 37.6667 20C37.6667 15.4655 37.645 14.8839 37.5657 13.086L37.5656 13.0831C37.478 11.2172 37.1804 9.90013 36.7258 8.72641C36.2566 7.48122 35.5224 6.3529 34.5738 5.41964C33.5454 4.39373 32.5001 3.74643 31.2773 3.27563C30.1002 2.81827 28.7837 2.52209 26.9169 2.43444ZM14.8146 14.8146C16.1898 13.4393 18.0551 12.6667 20 12.6667C21.9449 12.6667 23.8102 13.4393 25.1855 14.8146C26.5607 16.1898 27.3333 18.0551 27.3333 20C27.3333 21.9449 26.5607 23.8102 25.1855 25.1855C23.8102 26.5607 21.9449 27.3333 20 27.3333C18.0551 27.3333 16.1898 26.5607 14.8146 25.1855C13.4393 23.8102 12.6667 21.9449 12.6667 20C12.6667 18.0551 13.4393 16.1898 14.8146 14.8146ZM29.516 10.484C29.7192 10.6871 29.8333 10.9627 29.8333 11.25C29.8333 11.5373 29.7192 11.8129 29.516 12.016C29.3129 12.2192 29.0373 12.3333 28.75 12.3333C28.4627 12.3333 28.1871 12.2192 27.984 12.016C27.7808 11.8129 27.6667 11.5373 27.6667 11.25C27.6667 10.9627 27.7808 10.6871 27.984 10.484C28.1871 10.2808 28.4627 10.1667 28.75 10.1667C29.0373 10.1667 29.3129 10.2808 29.516 10.484ZM24.2427 15.7574C23.1174 14.6322 21.5913 14 20 14C18.4087 14 16.8826 14.6322 15.7574 15.7574C14.6322 16.8826 14 18.4087 14 20C14 21.5913 14.6322 23.1174 15.7574 24.2427C16.8826 25.3679 18.4087 26 20 26C21.5913 26 23.1174 25.3679 24.2427 24.2427C25.3679 23.1174 26 21.5913 26 20C26 18.4087 25.3679 16.8826 24.2427 15.7574Z" stroke="white" stroke-width="2"/>
<defs>
<radialGradient id="paint0_radial_1_790" cx="0" cy="0" r="1" gradientUnits="userSpaceOnUse" gradientTransform="translate(12.1876 39.2341) rotate(-90) scale(33.0358 30.7259)">
<stop stop-color="#FFDD55"/>
<stop offset="0.1" stop-color="#FFDD55"/>
<stop offset="0.5" stop-color="#FF543E"/>
<stop offset="1" stop-color="#C837AB"/>
</radialGradient>
<radialGradient id="paint1_radial_1_790" cx="0" cy="0" r="1" gradientUnits="userSpaceOnUse" gradientTransform="translate(-2.25017 5.73462) rotate(78.6806) scale(14.7671 60.8708)">
<stop stop-color="#3771C8"/>
<stop offset="0.128" stop-color="#3771C8"/>
<stop offset="1" stop-color="#6600FF" stop-opacity="0"/>
</radialGradient>
</defs>
</svg>
