<svg width="56" height="56" viewBox="0 0 56 56" fill="none" xmlns="http://www.w3.org/2000/svg">
<path d="M24.7669 41.5231L26.8147 36.8326C28.6372 32.6587 31.9174 29.3361 36.0092 27.5198L41.6458 25.0178C43.4378 24.2223 43.4378 21.6152 41.6458 20.8198L36.1851 18.3959C31.9881 16.5329 28.6491 13.0872 26.8578 8.77086L24.7835 3.77237C24.0137 1.91745 21.4508 1.91745 20.681 3.77237L18.6066 8.77081C16.8153 13.0872 13.4762 16.5329 9.27932 18.3959L3.81869 20.8198C2.02659 21.6152 2.02658 24.2223 3.81869 25.0178L9.45537 27.5198C13.5471 29.3361 16.8273 32.6587 18.6497 36.8326L20.6976 41.5231C21.4848 43.3258 23.9797 43.3258 24.7669 41.5231ZM45.2699 52.9431L45.8458 51.6231C46.8725 49.2697 48.7216 47.3958 51.0288 46.3708L52.8031 45.5824C53.7628 45.1561 53.7628 43.7614 52.8031 43.3351L51.1282 42.5908C48.7615 41.5394 46.8792 39.5962 45.8701 37.1628L45.2788 35.7364C44.8665 34.7424 43.4922 34.7424 43.0799 35.7364L42.4886 37.1628C41.4797 39.5962 39.5974 41.5394 37.2307 42.5908L35.5556 43.3351C34.5961 43.7614 34.5961 45.1561 35.5556 45.5824L37.3298 46.3708C39.6373 47.3958 41.4862 49.2697 42.5129 51.6231L43.089 52.9431C43.5104 53.9093 44.8483 53.9093 45.2699 52.9431Z" fill="#A3B1BC"/>
</svg>
