<svg width="21" height="20" viewBox="0 0 21 20" fill="none" xmlns="http://www.w3.org/2000/svg">
<g id="loop-right-line">
<path id="Vector" d="M10.4583 3.33332C12.7488 3.33332 14.7708 4.48854 15.9713 6.24999H13.7917V7.91666H18.7917V2.91666H17.125V4.99946C15.6052 2.97637 13.1853 1.66666 10.4583 1.66666C5.85597 1.66666 2.12502 5.39761 2.12502 9.99999H3.79168C3.79168 6.31809 6.77645 3.33332 10.4583 3.33332ZM17.125 9.99999C17.125 13.6819 14.1403 16.6667 10.4583 16.6667C8.16788 16.6667 6.14592 15.5114 4.94537 13.75H7.12502V12.0833H2.12502V17.0833H3.79168V15.0005C5.31152 17.0236 7.73138 18.3333 10.4583 18.3333C15.0607 18.3333 18.7917 14.6023 18.7917 9.99999H17.125Z" fill="#002544"/>
</g>
</svg>
