<svg width="108" height="24" viewBox="0 0 108 24" fill="none" xmlns="http://www.w3.org/2000/svg">
<rect width="108" height="24" rx="8" fill="white" fill-opacity="0.82"/>
<path d="M7.5 15.5H16.5V16.5H7.5V15.5ZM12.5 10.5H16L12 14.5L8 10.5H11.5V6.5H12.5V10.5Z" fill="#002544"/>
<path d="M29.4303 9.65H26.8143V17H25.2003V9.65H22.5843V8.324H29.4303V9.65ZM30.5226 11.912C30.7146 11.544 30.9426 11.256 31.2066 11.048C31.4706 10.836 31.7826 10.73 32.1426 10.73C32.4266 10.73 32.6546 10.792 32.8266 10.916L32.7306 12.026C32.7106 12.098 32.6806 12.15 32.6406 12.182C32.6046 12.21 32.5546 12.224 32.4906 12.224C32.4306 12.224 32.3406 12.214 32.2206 12.194C32.1046 12.174 31.9906 12.164 31.8786 12.164C31.7146 12.164 31.5686 12.188 31.4406 12.236C31.3126 12.284 31.1966 12.354 31.0926 12.446C30.9926 12.534 30.9026 12.642 30.8226 12.77C30.7466 12.898 30.6746 13.044 30.6066 13.208V17H29.1246V10.844H29.9946C30.1466 10.844 30.2526 10.872 30.3126 10.928C30.3726 10.98 30.4126 11.076 30.4326 11.216L30.5226 11.912ZM39.1931 10.844L35.8391 18.692C35.7951 18.796 35.7371 18.874 35.6651 18.926C35.5971 18.982 35.4911 19.01 35.3471 19.01H34.2431L35.3951 16.538L32.9051 10.844H34.2071C34.3231 10.844 34.4131 10.872 34.4771 10.928C34.5451 10.984 34.5951 11.048 34.6271 11.12L35.9351 14.312C35.9791 14.42 36.0151 14.528 36.0431 14.636C36.0751 14.744 36.1051 14.854 36.1331 14.966C36.1691 14.854 36.2051 14.744 36.2411 14.636C36.2771 14.524 36.3171 14.414 36.3611 14.306L37.5971 11.12C37.6291 11.04 37.6811 10.974 37.7531 10.922C37.8291 10.87 37.9131 10.844 38.0051 10.844H39.1931ZM45.2665 10.748C45.7225 10.748 46.1365 10.822 46.5085 10.97C46.8845 11.118 47.2045 11.328 47.4685 11.6C47.7365 11.872 47.9425 12.204 48.0865 12.596C48.2305 12.988 48.3025 13.426 48.3025 13.91C48.3025 14.398 48.2305 14.838 48.0865 15.23C47.9425 15.622 47.7365 15.956 47.4685 16.232C47.2045 16.508 46.8845 16.72 46.5085 16.868C46.1365 17.016 45.7225 17.09 45.2665 17.09C44.8065 17.09 44.3885 17.016 44.0125 16.868C43.6365 16.72 43.3145 16.508 43.0465 16.232C42.7825 15.956 42.5765 15.622 42.4285 15.23C42.2845 14.838 42.2125 14.398 42.2125 13.91C42.2125 13.426 42.2845 12.988 42.4285 12.596C42.5765 12.204 42.7825 11.872 43.0465 11.6C43.3145 11.328 43.6365 11.118 44.0125 10.97C44.3885 10.822 44.8065 10.748 45.2665 10.748ZM45.2665 15.95C45.7785 15.95 46.1565 15.778 46.4005 15.434C46.6485 15.09 46.7725 14.586 46.7725 13.922C46.7725 13.258 46.6485 12.752 46.4005 12.404C46.1565 12.056 45.7785 11.882 45.2665 11.882C44.7465 11.882 44.3605 12.058 44.1085 12.41C43.8605 12.758 43.7365 13.262 43.7365 13.922C43.7365 14.582 43.8605 15.086 44.1085 15.434C44.3605 15.778 44.7465 15.95 45.2665 15.95ZM58.1177 10.844L56.1617 17H54.9737C54.8377 17 54.7437 16.912 54.6917 16.736L53.5877 13.178C53.5517 13.058 53.5177 12.94 53.4857 12.824C53.4577 12.704 53.4337 12.584 53.4137 12.464C53.3897 12.584 53.3617 12.706 53.3297 12.83C53.3017 12.95 53.2697 13.07 53.2337 13.19L52.1117 16.736C52.0637 16.912 51.9577 17 51.7937 17H50.6537L48.7037 10.844H49.8857C49.9937 10.844 50.0857 10.87 50.1617 10.922C50.2377 10.974 50.2877 11.04 50.3117 11.12L51.1937 14.408C51.2377 14.588 51.2757 14.764 51.3077 14.936C51.3437 15.108 51.3737 15.28 51.3977 15.452C51.4417 15.28 51.4877 15.108 51.5357 14.936C51.5877 14.764 51.6417 14.588 51.6977 14.408L52.7177 11.108C52.7417 11.028 52.7877 10.962 52.8557 10.91C52.9277 10.858 53.0137 10.832 53.1137 10.832H53.7677C53.8717 10.832 53.9597 10.858 54.0317 10.91C54.1077 10.962 54.1577 11.028 54.1817 11.108L55.1717 14.408C55.2237 14.588 55.2717 14.766 55.3157 14.942C55.3637 15.114 55.4097 15.286 55.4537 15.458C55.5057 15.118 55.5797 14.768 55.6757 14.408L56.5817 11.12C56.6097 11.04 56.6597 10.974 56.7317 10.922C56.8037 10.87 56.8897 10.844 56.9897 10.844H58.1177ZM60.3465 11.6C60.4705 11.476 60.6005 11.362 60.7365 11.258C60.8765 11.15 61.0225 11.06 61.1745 10.988C61.3305 10.912 61.4965 10.854 61.6725 10.814C61.8485 10.77 62.0405 10.748 62.2485 10.748C62.5845 10.748 62.8825 10.806 63.1425 10.922C63.4025 11.034 63.6185 11.194 63.7905 11.402C63.9665 11.606 64.0985 11.852 64.1865 12.14C64.2785 12.424 64.3245 12.738 64.3245 13.082V17H62.8425V13.082C62.8425 12.706 62.7565 12.416 62.5845 12.212C62.4125 12.004 62.1505 11.9 61.7985 11.9C61.5425 11.9 61.3025 11.958 61.0785 12.074C60.8545 12.19 60.6425 12.348 60.4425 12.548V17H58.9605V10.844H59.8665C60.0585 10.844 60.1845 10.934 60.2445 11.114L60.3465 11.6ZM70.1339 15.404C70.3019 15.608 70.4839 15.752 70.6799 15.836C70.8799 15.92 71.0959 15.962 71.3279 15.962C71.5519 15.962 71.7539 15.92 71.9339 15.836C72.1139 15.752 72.2659 15.624 72.3899 15.452C72.5179 15.28 72.6159 15.064 72.6839 14.804C72.7519 14.54 72.7859 14.23 72.7859 13.874C72.7859 13.514 72.7559 13.21 72.6959 12.962C72.6399 12.71 72.5579 12.506 72.4499 12.35C72.3419 12.194 72.2099 12.08 72.0539 12.008C71.9019 11.936 71.7279 11.9 71.5319 11.9C71.2239 11.9 70.9619 11.966 70.7459 12.098C70.5299 12.226 70.3259 12.408 70.1339 12.644V15.404ZM70.0559 11.684C70.3079 11.4 70.5939 11.17 70.9139 10.994C71.2339 10.818 71.6099 10.73 72.0419 10.73C72.3779 10.73 72.6839 10.8 72.9599 10.94C73.2399 11.08 73.4799 11.284 73.6799 11.552C73.8839 11.816 74.0399 12.144 74.1479 12.536C74.2599 12.924 74.3159 13.37 74.3159 13.874C74.3159 14.334 74.2539 14.76 74.1299 15.152C74.0059 15.544 73.8279 15.884 73.5959 16.172C73.3679 16.46 73.0899 16.686 72.7619 16.85C72.4379 17.01 72.0739 17.09 71.6699 17.09C71.3259 17.09 71.0319 17.038 70.7879 16.934C70.5439 16.826 70.3259 16.678 70.1339 16.49V19.01H68.6519V10.844H69.5579C69.7499 10.844 69.8759 10.934 69.9359 11.114L70.0559 11.684ZM76.9542 11.504C77.1942 11.28 77.4582 11.098 77.7462 10.958C78.0342 10.818 78.3722 10.748 78.7602 10.748C79.0962 10.748 79.3942 10.806 79.6542 10.922C79.9142 11.034 80.1302 11.194 80.3022 11.402C80.4782 11.606 80.6102 11.852 80.6982 12.14C80.7902 12.424 80.8362 12.738 80.8362 13.082V17H79.3542V13.082C79.3542 12.706 79.2682 12.416 79.0962 12.212C78.9242 12.004 78.6622 11.9 78.3102 11.9C78.0542 11.9 77.8142 11.958 77.5902 12.074C77.3662 12.19 77.1542 12.348 76.9542 12.548V17H75.4722V8.084H76.9542V11.504ZM84.9697 10.748C85.4257 10.748 85.8397 10.822 86.2117 10.97C86.5877 11.118 86.9077 11.328 87.1717 11.6C87.4397 11.872 87.6457 12.204 87.7897 12.596C87.9337 12.988 88.0057 13.426 88.0057 13.91C88.0057 14.398 87.9337 14.838 87.7897 15.23C87.6457 15.622 87.4397 15.956 87.1717 16.232C86.9077 16.508 86.5877 16.72 86.2117 16.868C85.8397 17.016 85.4257 17.09 84.9697 17.09C84.5097 17.09 84.0917 17.016 83.7157 16.868C83.3397 16.72 83.0177 16.508 82.7497 16.232C82.4857 15.956 82.2797 15.622 82.1317 15.23C81.9877 14.838 81.9157 14.398 81.9157 13.91C81.9157 13.426 81.9877 12.988 82.1317 12.596C82.2797 12.204 82.4857 11.872 82.7497 11.6C83.0177 11.328 83.3397 11.118 83.7157 10.97C84.0917 10.822 84.5097 10.748 84.9697 10.748ZM84.9697 15.95C85.4817 15.95 85.8597 15.778 86.1037 15.434C86.3517 15.09 86.4757 14.586 86.4757 13.922C86.4757 13.258 86.3517 12.752 86.1037 12.404C85.8597 12.056 85.4817 11.882 84.9697 11.882C84.4497 11.882 84.0637 12.058 83.8117 12.41C83.5637 12.758 83.4397 13.262 83.4397 13.922C83.4397 14.582 83.5637 15.086 83.8117 15.434C84.0637 15.778 84.4497 15.95 84.9697 15.95ZM91.0711 17.096C90.5351 17.096 90.1231 16.946 89.8351 16.646C89.5511 16.342 89.4091 15.924 89.4091 15.392V11.954H88.7791C88.6991 11.954 88.6311 11.928 88.5751 11.876C88.5191 11.824 88.4911 11.746 88.4911 11.642V11.054L89.4811 10.892L89.7931 9.212C89.8131 9.132 89.8511 9.07 89.9071 9.026C89.9631 8.982 90.0351 8.96 90.1231 8.96H90.8911V10.898H92.5351V11.954H90.8911V15.29C90.8911 15.482 90.9371 15.632 91.0291 15.74C91.1251 15.848 91.2551 15.902 91.4191 15.902C91.5111 15.902 91.5871 15.892 91.6471 15.872C91.7111 15.848 91.7651 15.824 91.8091 15.8C91.8571 15.776 91.8991 15.754 91.9351 15.734C91.9711 15.71 92.0071 15.698 92.0431 15.698C92.0871 15.698 92.1231 15.71 92.1511 15.734C92.1791 15.754 92.2091 15.786 92.2411 15.83L92.6851 16.55C92.4691 16.73 92.2211 16.866 91.9411 16.958C91.6611 17.05 91.3711 17.096 91.0711 17.096ZM96.1611 10.748C96.6171 10.748 97.0311 10.822 97.4031 10.97C97.7791 11.118 98.0991 11.328 98.3631 11.6C98.6311 11.872 98.8371 12.204 98.9811 12.596C99.1251 12.988 99.1971 13.426 99.1971 13.91C99.1971 14.398 99.1251 14.838 98.9811 15.23C98.8371 15.622 98.6311 15.956 98.3631 16.232C98.0991 16.508 97.7791 16.72 97.4031 16.868C97.0311 17.016 96.6171 17.09 96.1611 17.09C95.7011 17.09 95.2831 17.016 94.9071 16.868C94.5311 16.72 94.2091 16.508 93.9411 16.232C93.6771 15.956 93.4711 15.622 93.3231 15.23C93.1791 14.838 93.1071 14.398 93.1071 13.91C93.1071 13.426 93.1791 12.988 93.3231 12.596C93.4711 12.204 93.6771 11.872 93.9411 11.6C94.2091 11.328 94.5311 11.118 94.9071 10.97C95.2831 10.822 95.7011 10.748 96.1611 10.748ZM96.1611 15.95C96.6731 15.95 97.0511 15.778 97.2951 15.434C97.5431 15.09 97.6671 14.586 97.6671 13.922C97.6671 13.258 97.5431 12.752 97.2951 12.404C97.0511 12.056 96.6731 11.882 96.1611 11.882C95.6411 11.882 95.2551 12.058 95.0031 12.41C94.7551 12.758 94.6311 13.262 94.6311 13.922C94.6311 14.582 94.7551 15.086 95.0031 15.434C95.2551 15.778 95.6411 15.95 96.1611 15.95Z" fill="#002544"/>
<rect x="0.5" y="0.5" width="107" height="23" rx="7.5" stroke="#002544" stroke-opacity="0.08"/>
</svg>
