<svg width="21" height="20" viewBox="0 0 21 20" fill="none" xmlns="http://www.w3.org/2000/svg">
<g id="thumb-up-line">
<path id="Vector" d="M12.8748 6.66695H18.2083C19.1288 6.66695 19.875 7.41314 19.875 8.33359V10.0873C19.875 10.3049 19.8323 10.5205 19.7495 10.7218L17.1708 16.9843C17.0423 17.2965 16.7379 17.5003 16.4003 17.5003H2.37501C1.91477 17.5003 1.54167 17.1272 1.54167 16.6669V8.33359C1.54167 7.87338 1.91477 7.50029 2.37501 7.50029H5.27654C5.54731 7.50029 5.8012 7.36873 5.95735 7.14752L10.5018 0.709473C10.6206 0.541249 10.8444 0.484992 11.0286 0.577079L12.5403 1.33294C13.4167 1.77113 13.8693 2.76078 13.6276 3.7103L12.8748 6.66695ZM6.54167 8.82318V15.8336H15.8422L18.2083 10.0873V8.33359H12.8748C11.7876 8.33359 10.9915 7.30941 11.2597 6.25577L12.0124 3.29913C12.0608 3.10922 11.9703 2.91129 11.7949 2.82365L11.244 2.54818L7.31896 8.10866C7.11071 8.40368 6.84451 8.64551 6.54167 8.82318ZM4.875 9.16693H3.20834V15.8336H4.875V9.16693Z" fill="#002544"/>
</g>
</svg>
