<svg width="21" height="20" viewBox="0 0 21 20" fill="none" xmlns="http://www.w3.org/2000/svg">
<g id="thumb-down-line">
<path id="Vector" d="M8.12514 13.3333H2.79167C1.87119 13.3333 1.125 12.5872 1.125 11.6667V9.91308C1.125 9.69533 1.16765 9.47975 1.25053 9.2785L3.82917 3.01604C3.95775 2.70379 4.26206 2.5 4.59974 2.5H18.625C19.0852 2.5 19.4583 2.8731 19.4583 3.33333V11.6667C19.4583 12.1269 19.0852 12.5 18.625 12.5H15.7235C15.4527 12.5 15.1988 12.6316 15.0427 12.8528L10.4982 19.2908C10.3794 19.459 10.1556 19.5153 9.97142 19.4232L8.45969 18.6673C7.58332 18.2292 7.13072 17.2395 7.37245 16.29L8.12514 13.3333ZM14.4583 11.1771V4.16667H5.15782L2.79167 9.91308V11.6667H8.12514C9.21242 11.6667 10.0085 12.6908 9.74033 13.7445L8.98758 16.7012C8.93925 16.8911 9.02975 17.089 9.20508 17.1767L9.756 17.4521L13.6811 11.8917C13.8893 11.5966 14.1555 11.3548 14.4583 11.1771ZM16.125 10.8333H17.7917V4.16667H16.125V10.8333Z" fill="#002544"/>
</g>
</svg>
